<svg xmlns="http://www.w3.org/2000/svg" viewBox="0 0 168 168" id="cloud-computing">
  <path fill="#2d4356" d="M46.77185,61.12563q.1962.511.42,1.01117a5.37067,5.37067,0,0,0,.88733,6.43054l3.03107,3.02625a5.39274,5.39274,0,0,0,6.4408.88574q.50089.22339,1.01276.41931A5.38738,5.38738,0,0,0,63.7431,76.818h4.2868a5.38732,5.38732,0,0,0,5.17932-3.91931q.51205-.19592,1.01276-.41931a5.39292,5.39292,0,0,0,6.441-.88586l3.03107-3.02625a5.3706,5.3706,0,0,0,.88708-6.43042q.22375-.5.42-1.01117a5.38132,5.38132,0,0,0,3.92554-5.171V51.67471a5.38143,5.38143,0,0,0-3.92554-5.171q-.19629-.51123-.42-1.01111A5.37085,5.37085,0,0,0,83.694,39.062l-3.03119-3.02631A5.39258,5.39258,0,0,0,74.222,35.15q-.50089-.22357-1.01282-.41937a5.38734,5.38734,0,0,0-5.17932-3.91925H63.7431a5.38739,5.38739,0,0,0-5.17932,3.91925q-.51205.19592-1.01276.41931a5.39265,5.39265,0,0,0-6.44092.88593L48.079,39.062a5.37076,5.37076,0,0,0-.88721,6.43048q-.22375.50015-.42,1.01117a5.38148,5.38148,0,0,0-3.9256,5.171v4.27991A5.38144,5.38144,0,0,0,46.77185,61.12563Zm.08142-9.45093A1.37064,1.37064,0,0,1,48.225,50.30514h1.58032a16.31665,16.31665,0,0,1,2.22626-5.36l-1.1192-1.11743a1.368,1.368,0,0,1,0-1.93683l3.03119-3.02637a1.37347,1.37347,0,0,1,1.93994,0l1.1192,1.11743A16.37573,16.37573,0,0,1,62.3714,37.7593V36.18154A1.37063,1.37063,0,0,1,63.7431,34.812h4.2868a1.3706,1.3706,0,0,1,1.37177,1.36957V37.7593A16.37519,16.37519,0,0,1,74.77032,39.982l1.1192-1.11743a1.37347,1.37347,0,0,1,1.93994,0l3.03125,3.02637a1.368,1.368,0,0,1,0,1.93683l-1.11926,1.11743a16.31926,16.31926,0,0,1,2.22626,5.36H83.548a1.37069,1.37069,0,0,1,1.37183,1.36957v4.27991A1.37068,1.37068,0,0,1,83.548,57.32412H81.96771a16.319,16.319,0,0,1-2.22626,5.36l1.11926,1.11737a1.36805,1.36805,0,0,1,0,1.93689l-3.03125,3.02631a1.37317,1.37317,0,0,1-1.93994,0l-1.1192-1.11743A16.37137,16.37137,0,0,1,69.40167,69.87v1.57776a1.37064,1.37064,0,0,1-1.37177,1.36957H63.7431a1.37067,1.37067,0,0,1-1.3717-1.36957V69.87a16.37192,16.37192,0,0,1-5.36865-2.22272l-1.1192,1.11743a1.37317,1.37317,0,0,1-1.93994,0l-3.03119-3.02631a1.36805,1.36805,0,0,1,0-1.93689l1.1192-1.11737a16.31773,16.31773,0,0,1-2.22626-5.36H48.225a1.37063,1.37063,0,0,1-1.37177-1.36951Z"></path>
  <path fill="#0bceb2" d="M65.88654,65.81637a12.00172,12.00172,0,1,0-12.021-12.00171A12.02493,12.02493,0,0,0,65.88654,65.81637Zm0-20.00281a8.00114,8.00114,0,1,1-8.014,8.0011A8.00757,8.00757,0,0,1,65.88654,45.81356Z"></path>
  <path fill="#2d4356" d="M87.90729,68.81265v2.92816a4.90117,4.90117,0,0,0,1.44849,3.49139,4.95238,4.95238,0,0,0,1.3197.94476,4.938,4.938,0,0,0,1.18268,5.08685l2.074,2.07068a4.9658,4.9658,0,0,0,5.09644,1.18359,4.95832,4.95832,0,0,0,4.44183,2.761h2.93311a4.95831,4.95831,0,0,0,4.442-2.761A4.9658,4.9658,0,0,0,115.942,83.3345l2.07391-2.07062a4.93791,4.93791,0,0,0,1.1828-5.08691,4.95147,4.95147,0,0,0,1.31964-.9447,4.90146,4.90146,0,0,0,1.44855-3.49146V68.8124a4.90109,4.90109,0,0,0-1.44855-3.49133,4.9505,4.9505,0,0,0-1.31964-.9447,4.93785,4.93785,0,0,0-1.1828-5.08691L115.942,57.21877a4.9658,4.9658,0,0,0-5.09644-1.18359,4.95846,4.95846,0,0,0-4.44189-2.76093h-2.933a4.95846,4.95846,0,0,0-4.442,2.76093,4.9658,4.9658,0,0,0-5.09644,1.18359l-2.074,2.07068a4.938,4.938,0,0,0-1.18268,5.08691,4.95357,4.95357,0,0,0-1.31964.94464A4.90137,4.90137,0,0,0,87.90729,68.81265Zm4.007-.00018a.93785.93785,0,0,1,.9386-.93707h1.08295a11.16547,11.16547,0,0,1,1.52032-3.66858l-.76459-.76331a.936.936,0,0,1,0-1.3252l2.074-2.07068a.93959.93959,0,0,1,1.32733,0l.76465.76331a11.20306,11.20306,0,0,1,3.67444-1.51782v-1.0813a.93776.93776,0,0,1,.9386-.937h2.933a.93778.93778,0,0,1,.93854.937v1.0813a11.20306,11.20306,0,0,1,3.67444,1.51782l.76459-.76331a.93967.93967,0,0,1,1.32739,0l2.07391,2.07068a.93585.93585,0,0,1,0,1.3252l-.76459.76331a11.16538,11.16538,0,0,1,1.52039,3.66864h1.083a.93782.93782,0,0,1,.93854.937v2.92834a.93785.93785,0,0,1-.9386.93707h-1.08295a11.16507,11.16507,0,0,1-1.52039,3.66858l.76459.76331a.93593.93593,0,0,1,0,1.32526l-2.07391,2.07062a.93967.93967,0,0,1-1.32739,0l-.76459-.76337a11.20321,11.20321,0,0,1-3.67444,1.51788v1.08124a.93786.93786,0,0,1-.9386.93713h-2.93311a.93779.93779,0,0,1-.93848-.93713V81.26022a11.20335,11.20335,0,0,1-3.67444-1.51794l-.76465.76337a.93959.93959,0,0,1-1.32733,0l-2.074-2.07062a.93609.93609,0,0,1,0-1.32526l.76459-.76331a11.16493,11.16493,0,0,1-1.52032-3.66858h-1.083a.93783.93783,0,0,1-.93854-.93707Z"></path>
  <path fill="#0bceb2" d="M104.93707 77.27767a7.001 7.001 0 1 0-7.01227-7.001A7.01462 7.01462 0 0 0 104.93707 77.27767zm0-10.00146a3.00043 3.00043 0 1 1-3.00525 3.00043A3.00289 3.00289 0 0 1 104.93707 67.27621zM36.68573 90.77A9.00129 9.00129 0 1 0 27.67 81.76876 9.01868 9.01868 0 0 0 36.68573 90.77zm0-14.002a5.00071 5.00071 0 1 1-5.00879 5.00067A5.00472 5.00472 0 0 1 36.68573 76.76809zM130.85028 90.77a9.00129 9.00129 0 1 0-9.01575-9.00128A9.01868 9.01868 0 0 0 130.85028 90.77zm0-14.002a5.00071 5.00071 0 1 1-5.00879 5.00067A5.00472 5.00472 0 0 1 130.85028 76.76809z"></path>
  <circle cx="2" cy="148.884" r="2" fill="#2d4356"></circle>
  <path fill="#2d4356" d="M11 146.88442H8a2 2 0 0 0 0 4h3a2 2 0 0 0 0-4zM160 146.88442h-3a2 2 0 0 0 0 4h3a2 2 0 0 0 0-4z"></path>
  <circle cx="166" cy="148.884" r="2" fill="#2d4356"></circle>
  <path fill="#0bceb2" d="M118.15387 154.88442h-8.30774a2.00641 2.00641 0 0 0 0 4h8.30774a2.00641 2.00641 0 0 0 0-4zM58.15387 154.88442H49.84613a2.00641 2.00641 0 0 0 0 4h8.30774a2.00641 2.00641 0 0 0 0-4zM104 154.88442H64a2 2 0 0 0 0 4H79.94v2H72a2 2 0 0 0 0 4H97a2 2 0 0 0 0-4H88.06v-2H104a2 2 0 0 0 0-4z"></path>
  <path fill="#2d4356" d="M150.72131 146.88442H90.33667a6.8776 6.8776 0 0 0 .67737-2.968 6.98376 6.98376 0 0 0-5.00873-6.67456v-36.374l4.007.00018v16.39636a1.99818 1.99818 0 0 0 .59479 1.42206l8.014 7.91321a2.00169 2.00169 0 1 0 2.81744-2.84412l-7.41925-7.32623v-15.5611l6.0105.00031v12.43921a1.99847 1.99847 0 0 0 .59479 1.42212l7.41925 7.32623V132.351a7.01239 7.01239 0 1 0 4.007 0v-11.13a1.99833 1.99833 0 0 0-.59479-1.42206l-7.41925-7.32623v-11.604l6.0105.00024v7.4928a1.99818 1.99818 0 0 0 .59479 1.42206l7.41925 7.32623V127.156a2.00348 2.00348 0 0 0 4.007 0V116.275a1.99818 1.99818 0 0 0-.59479-1.42206l-7.41919-7.32623v-6.65753l8.52026.00037c4.09991 0 8.7467 0 13.03009-1.61841a19.859 19.859 0 0 0 12.0249-21.93036 19.77568 19.77568 0 0 0-18.1709-15.21606A24.1005 24.1005 0 0 0 104.46625 44.592a27.53664 27.53664 0 0 0-7.64618 1.8186A32.875 32.875 0 0 0 75.05646 24.14767a32.86464 32.86464 0 0 0-32.16119 8.36255c-7.29736 7.4942-10.68219 20.48383-8.23114 31.588a.52992.52992 0 0 1-.31256.64124c-1.555.481-3.44159 1.19788-3.873 1.4035-6.57007 3.13568-10.6803 9.49109-10.47095 16.1922A18.9603 18.9603 0 0 0 31.73175 99.02938c4.522 1.83673 9.4682 1.83673 13.83228 1.83673l8.38525.00037v6.66022l-7.41919 7.32623a1.99818 1.99818 0 0 0-.59479 1.42206v10.881a2.00348 2.00348 0 0 0 4.007 0v-10.0459l7.41925-7.32623a1.99818 1.99818 0 0 0 .59479-1.42206v-7.49512l6.0105.00024v11.60583L56.54755 119.799a1.99808 1.99808 0 0 0-.59479 1.42206v11.13a7.01239 7.01239 0 1 0 4.007 0V122.05611l7.41925-7.32623a1.99847 1.99847 0 0 0 .59479-1.42212V100.86709l6.0105.00031v15.562l-7.41925 7.32623a2.00169 2.00169 0 0 0 2.81744 2.84412l8.014-7.91321a1.99818 1.99818 0 0 0 .59479-1.42206V100.86758l4.007.00012v36.37415a6.98376 6.98376 0 0 0-5.00873 6.67456 6.8776 6.8776 0 0 0 .67737 2.968H17.27869a2.017 2.017 0 1 0 0 4H150.72131a2.017 2.017 0 1 0 0-4zm-37.66876-7.85889a3.00549 3.00549 0 1 1-3.00525-2.96741A2.9865 2.9865 0 0 1 113.05255 139.02554zm-52.091 0a3.00549 3.00549 0 1 1-3.00525-2.96741A2.98653 2.98653 0 0 1 60.96155 139.02554zM45.564 96.8655c-4.19189 0-8.52661 0-12.32184-1.54169A14.90411 14.90411 0 0 1 24.0127 82.21011c-.16-5.116 3.05658-10.0058 8.18323-12.45245.223-.10156 1.83917-.732 3.34229-1.19745a4.4972 4.4972 0 0 0 3.039-5.32349c-2.14294-9.70789.88141-21.45764 7.19128-27.938a28.794 28.794 0 0 1 20.4209-8.423 27.05464 27.05464 0 0 1 7.72156 1.10559A28.78708 28.78708 0 0 1 92.95984 47.482a4.03961 4.03961 0 0 0 2.05243 2.51306 3.988 3.988 0 0 0 3.18671.18463 23.43488 23.43488 0 0 1 6.54022-1.59644 20.56791 20.56791 0 0 1 11.43994 2.56433 20.35976 20.35976 0 0 1 9.42468 12.04907 3.96944 3.96944 0 0 0 3.66364 2.87347 15.95071 15.95071 0 0 1 14.44122 12.074 15.72619 15.72619 0 0 1-9.52252 17.36523c-3.59808 1.35956-7.67157 1.35956-11.61157 1.35956zm38.43774 44.08344a2.96768 2.96768 0 1 1-3.00525 2.96747A2.98655 2.98655 0 0 1 84.00177 140.94894zM104.75 24.88442a3 3 0 1 0-3-3A3.00344 3.00344 0 0 0 104.75 24.88442zm0-4.5a1.5 1.5 0 1 1-1.5 1.5A1.50148 1.50148 0 0 1 104.75 20.38442zM157.25 47.88442a2 2 0 1 0 2 2A2.00229 2.00229 0 0 0 157.25 47.88442zm0 3a1 1 0 1 1 1-1A1.001 1.001 0 0 1 157.25 50.88442zM124.75 3.38442a2 2 0 1 0 2 2A2.00229 2.00229 0 0 0 124.75 3.38442zm0 3a1 1 0 1 1 1-1A1.001 1.001 0 0 1 124.75 6.38442zM134.5 45.63442a2 2 0 1 0 2 2A2.00229 2.00229 0 0 0 134.5 45.63442zm0 3a1 1 0 1 1 1-1A1.001 1.001 0 0 1 134.5 48.63442zM32.30471 28.13442a2 2 0 1 0-2 2A2.00229 2.00229 0 0 0 32.30471 28.13442zm-3 0a1 1 0 1 1 1 1A1.001 1.001 0 0 1 29.30471 28.13442z"></path>
  <polygon fill="#0bceb2" points="10.638 53.896 12.125 51.94 11.186 51.408 10.231 53.598 10.2 53.598 9.23 51.424 8.275 51.971 9.746 53.88 9.746 53.912 7.445 53.614 7.445 54.678 9.761 54.381 9.761 54.412 8.275 56.321 9.166 56.884 10.184 54.678 10.215 54.678 11.154 56.868 12.14 56.305 10.638 54.428 10.638 54.396 13 54.678 13 53.614 10.638 53.927 10.638 53.896"></polygon>
  <polygon fill="#0bceb2" points="7.581 7.951 6.725 9.05 7.239 9.375 7.825 8.104 7.842 8.104 8.383 9.366 8.951 9.041 8.086 7.96 8.086 7.942 9.446 8.104 9.446 7.491 8.086 7.671 8.086 7.654 8.942 6.527 8.402 6.221 7.852 7.482 7.834 7.482 7.275 6.23 6.725 6.545 7.572 7.645 7.572 7.663 6.247 7.491 6.247 8.104 7.581 7.933 7.581 7.951"></polygon>
  <polygon fill="#0bceb2" points="159.055 20.348 159.055 19.304 156.738 19.611 156.738 19.581 158.196 17.662 157.275 17.141 156.339 19.289 156.308 19.289 155.357 17.156 154.42 17.693 155.863 19.566 155.863 19.596 153.606 19.304 153.606 20.348 155.878 20.057 155.878 20.087 154.42 21.959 155.295 22.512 156.293 20.348 156.323 20.348 157.244 22.497 158.211 21.944 156.738 20.102 156.738 20.072 159.055 20.348"></polygon>
  <polygon fill="#0bceb2" points="63.498 5.22 64.756 3.566 63.961 3.116 63.154 4.969 63.127 4.969 62.307 3.129 61.498 3.592 62.743 5.207 62.743 5.234 60.797 4.982 60.797 5.882 62.756 5.631 62.756 5.657 61.498 7.272 62.253 7.749 63.114 5.882 63.14 5.882 63.935 7.736 64.769 7.259 63.498 5.67 63.498 5.644 65.496 5.882 65.496 4.982 63.498 5.247 63.498 5.22"></polygon>
</svg>
